<?xml version="1.0" standalone="no"?>
<!DOCTYPE svg PUBLIC "-//W3C//DTD SVG 20010904//EN"
 "http://www.w3.org/TR/2001/REC-SVG-20010904/DTD/svg10.dtd">
<svg version="1.0" xmlns="http://www.w3.org/2000/svg"
 width="942.000000pt" height="942.000000pt" viewBox="0 0 942.000000 942.000000"
 preserveAspectRatio="xMidYMid meet">

<g transform="translate(0.000000,942.000000) scale(0.100000,-0.100000)"
fill="#000000" stroke="none">
<path d="M4571 8554 c-144 -31 -287 -120 -424 -264 -342 -359 -620 -1104 -763
-2046 l-27 -180 -181 -28 c-927 -140 -1686 -422 -2041 -757 -105 -100 -167
-181 -216 -284 -112 -230 -85 -475 76 -700 65 -91 214 -227 345 -314 400 -264
1059 -479 1836 -597 l180 -27 28 -181 c140 -927 422 -1686 757 -2041 100 -105
181 -167 284 -216 230 -112 475 -85 700 76 91 65 227 214 314 345 264 400 479
1059 597 1836 l27 180 181 28 c927 140 1686 422 2041 757 105 100 167 181 216
284 112 230 85 475 -76 700 -65 91 -214 227 -345 314 -400 264 -1059 479
-1836 597 l-180 27 -28 181 c-140 927 -422 1686 -757 2041 -100 105 -181 167
-284 216 -136 66 -282 84 -424 53z m265 -409 c231 -113 488 -582 658 -1201 60
-218 144 -622 163 -782 l6 -55 -74 6 c-303 27 -448 32 -889 31 -360 0 -543 -5
-709 -17 -123 -10 -226 -15 -229 -12 -8 7 22 191 64 405 154 769 425 1388 696
1586 107 79 207 91 314 39z m614 -2409 c849 -68 1538 -214 2055 -435 329 -142
566 -314 641 -466 63 -129 31 -250 -100 -380 -329 -326 -1107 -595 -2077 -717
l-256 -32 -22 -190 c-115 -980 -394 -1807 -721 -2137 -224 -225 -427 -171
-659 175 -278 417 -490 1151 -590 2041 -69 614 -79 1351 -27 1958 8 96 17 152
25 157 13 7 220 25 486 40 218 13 1020 4 1245 -14z m-2144 -148 c-26 -302 -31
-447 -30 -888 0 -360 5 -543 17 -709 10 -123 15 -226 12 -229 -14 -14 -486 75
-735 139 -308 79 -662 209 -860 316 -218 117 -380 254 -436 368 -63 129 -31
250 100 380 280 278 900 520 1691 659 83 15 157 28 165 30 8 2 30 4 49 5 l34
1 -7 -72z"/>
</g>
</svg>
